# xmcd CD database file
#
# Track frame offsets:
#	150
#	20503
#	44276
#	67933
#
# Disc length: 1177 seconds
#
# Revision: 0
# Processed by: cddbd v1.5.1PL2 Copyright (c) Steve Scherf et al.
# Submitted via: CDex 1.51
#
DISCID=2a049704
DTITLE=Kinki Kids - SNOW! SNOW! SNOW!(初回生産限定版)
DYEAR=2005
DGENRE=JPop
TTITLE0=SNOW! SNOW! SNOW!
TTITLE1=ミゾレ
TTITLE2=ユキノキャンバス
TTITLE3=SNOW! SNOW! SNOW!(Backing　Track)
EXTD=YEAR: 2005/12/21
EXTT0=
EXTT1=
EXTT2=
EXTT3=
PLAYORDER=
